<?xml version="1.0" encoding="iso-8859-1"?>
<!-- Generator: Adobe Illustrator 19.0.0, SVG Export Plug-In . SVG Version: 6.00 Build 0)  -->
<svg version="1.1" id="Capa_1" xmlns="http://www.w3.org/2000/svg" xmlns:xlink="http://www.w3.org/1999/xlink" x="0px" y="0px"
	 viewBox="0 0 496 496" style="enable-background:new 0 0 496 496;" xml:space="preserve">
<g>
	<g>
		<g>
			<path d="M48,0v112h-8c-22.056,0-40,17.944-40,40v256c0,22.056,17.944,40,40,40h72v32H80v16h32h224h32v-16h-32v-32h72
				c22.056,0,40-17.944,40-40v-56h48V0H48z M320,480H128v-32h192V480z M432,408c0,13.232-10.768,24-24,24h-72H112H40
				c-13.232,0-24-10.768-24-24v-8h416V408z M432,384H16V152c0-13.232,10.768-24,24-24h8v224h384V384z M480,336H64V80h416V336z
				 M480,64H64V16h416V64z"/>
			<rect x="80" y="32" width="16" height="16"/>
			<rect x="112" y="32" width="16" height="16"/>
			<rect x="144" y="32" width="16" height="16"/>
			<path d="M192,304h16h32h16h32h16h32h16h48h32v-16h-32V160h-48v-32h-64v64h-32v-80h-64v32h-48v144h-32v16h32H192z M352,176h32v112
				h-32V176z M304,192v-48h32v16v128h-32V192z M256,208h32v80h-32V208z M208,144v-16h32v64v96h-32V144z M160,160h32v128h-32V160z"/>
			<rect x="448" y="96" width="16" height="16"/>
			<rect x="448" y="128" width="16" height="16"/>
			<rect x="448" y="160" width="16" height="16"/>
			<rect x="448" y="192" width="16" height="16"/>
			<rect x="448" y="224" width="16" height="16"/>
		</g>
	</g>
</g>
<g>
</g>
<g>
</g>
<g>
</g>
<g>
</g>
<g>
</g>
<g>
</g>
<g>
</g>
<g>
</g>
<g>
</g>
<g>
</g>
<g>
</g>
<g>
</g>
<g>
</g>
<g>
</g>
<g>
</g>
</svg>
